<svg width="25" height="24" viewBox="0 0 25 24" fill="none" xmlns="http://www.w3.org/2000/svg">
<g id="person" clip-path="url(#clip0_301_447)">
<path id="Vector" d="M12.5 12C14.71 12 16.5 10.21 16.5 8C16.5 5.79 14.71 4 12.5 4C10.29 4 8.5 5.79 8.5 8C8.5 10.21 10.29 12 12.5 12ZM12.5 14C9.83 14 4.5 15.34 4.5 18V19C4.5 19.55 4.95 20 5.5 20H19.5C20.05 20 20.5 19.55 20.5 19V18C20.5 15.34 15.17 14 12.5 14Z" fill="#0155A5"/>
</g>
<defs>
<clipPath id="clip0_301_447">
<rect width="24" height="24" fill="white" transform="translate(0.5)"/>
</clipPath>
</defs>
</svg>
